<svg class="svg-icon" style="vertical-align: middle;fill: currentColor;overflow: hidden;" viewBox="0 0 1024 1024" version="1.1" xmlns="http://www.w3.org/2000/svg"><path d="M845.815 750.614h0.059v-0.364l-0.059 0.364z m0 0"  /><path d="M960.232 511.185l-112.423-64.309 111.607-63.741L511.16 126.72 63.073 383.145l112.382 64.205-111.566 63.845 113.337 64.751-113.462 64.93 448.087 255.999 448.255-256.009-113.38-64.857 113.506-64.824z m-793.109-128.04L511.16 190.889l342.099 192.256-58.835 33.193-283.404 159.89-283.059-158.925-60.838-34.158z m572.839 63.92L511.02 576.228 281.833 447.549 511.02 576.228l228.942-129.163z m-572.022 64.13l60.292-33.693L511.16 639.144 794.153 477.52l59.922 33.676L511.16 691.801 167.94 511.195z m686.011 129.682L511.713 833.96 167.816 640.877l62.211-34.765 281.95 161.082 281.087-160.536 60.887 34.219z" fill="currentColor"  /></svg>