<?xml version="1.0" encoding="iso-8859-1"?>
<svg version="1.1" id="Layer_1" xmlns="http://www.w3.org/2000/svg" xmlns:xlink="http://www.w3.org/1999/xlink" x="0px" y="0px"
	 viewBox="0 0 512 512" style="enable-background:new 0 0 512 512;" xml:space="preserve">
<g>
	<g>
		<g>
			<path d="M428.798,120.208H416.28c-9.552-32.61-29.16-61.994-55.881-83.457C330.899,13.051,293.821,0,255.999,0
				S181.101,13.051,151.6,36.75c-26.721,21.464-46.329,50.848-55.881,83.457H83.201c-21.021,0-38.121,17.101-38.121,38.121v12.8
				c0,21.021,17.101,38.121,38.121,38.121h11.283c2.195,8.373,5.045,16.585,8.521,24.507c1.775,4.046,5.774,6.658,10.192,6.658
				h44.918c22.36,29.719,57.914,48.974,97.885,48.974c67.51,0,122.434-54.924,122.434-122.434S323.509,44.521,255.999,44.521
				S133.566,99.445,133.566,166.955c0,18.269,4.029,35.613,11.234,51.2h-24.133c-2.745-7.229-4.907-14.687-6.447-22.254
				c0-0.002-0.001-0.004-0.002-0.007c0-0.001,0-0.002,0-0.003c-1.933-9.455-2.913-19.191-2.913-28.936
				c0-11.154,1.283-22.283,3.813-33.077c0-0.002,0-0.004,0.001-0.006c15.427-65.716,73.357-111.612,140.88-111.612
				s125.453,45.896,140.88,111.612c0,0.002,0,0.004,0.001,0.006c2.53,10.794,3.813,21.923,3.813,33.077
				c0,9.745-0.979,19.48-2.913,28.936c0,0.001,0,0.002,0,0.003c0,0.002-0.001,0.004-0.002,0.007
				c-2.018,9.915-5.102,19.643-9.169,28.913c-2.47,5.63,0.091,12.194,5.721,14.664c1.456,0.639,2.972,0.94,4.466,0.94
				c4.284,0,8.368-2.488,10.199-6.661c3.476-7.921,6.326-16.132,8.521-24.507h11.283c21.021,0,38.121-17.101,38.121-38.121v-12.8
				C466.919,137.308,449.819,120.208,428.798,120.208z M90.245,186.99h-7.044c-8.745,0-15.861-7.116-15.861-15.861v-12.8
				c0-8.745,7.116-15.861,15.861-15.861h7.64c-1.194,8.091-1.796,16.284-1.796,24.487C89.044,173.657,89.447,180.357,90.245,186.99z
				 M255.999,66.782c55.235,0,100.173,44.938,100.173,100.173s-44.938,100.173-100.173,100.173
				c-26.239,0-50.149-10.145-68.026-26.713h68.026c6.147,0,11.13-4.983,11.13-11.13s-4.983-11.13-11.13-11.13h-86.066
				c-8.953-14.993-14.107-32.504-14.107-51.2C155.826,111.72,200.764,66.782,255.999,66.782z M444.659,171.129
				c0,8.745-7.116,15.861-15.861,15.861h-7.044c0.798-6.633,1.201-13.333,1.201-20.035c0-8.203-0.602-16.396-1.796-24.487h7.64
				c8.745,0,15.861,7.116,15.861,15.861V171.129z" fill="currentColor"/>
			<path d="M339.86,327.328c-23.877-10.4-49.283-15.674-75.513-15.674h-16.695c-26.21,0-51.596,5.266-75.453,15.65
				C103.091,357.38,58.436,425.507,58.436,500.87c0,6.147,4.983,11.13,11.13,11.13h372.866c6.147,0,11.13-4.983,11.13-11.13
				c0-50.533-19.681-98.05-55.417-133.799C381.266,350.19,361.655,336.818,339.86,327.328z M247.652,333.915h16.696
				c17.504,0,34.585,2.662,50.979,7.924l-59.327,60.738l-59.326-60.737C213.065,336.578,230.146,333.915,247.652,333.915z
				 M344.487,469.7h83.919c1.237,6.585,2.093,13.272,2.534,20.039H81.066c0.45-6.776,1.332-13.461,2.58-20.039h28.772
				c6.147,0,11.13-4.983,11.13-11.13c0-6.147-4.983-11.13-11.13-11.13H89.485c14.062-41.642,44.249-76.74,84.867-96.595
				l73.685,75.438c2.095,2.145,4.965,3.354,7.963,3.354c2.997,0,5.868-1.209,7.963-3.354l73.698-75.451
				c16.568,8.096,31.595,18.829,44.745,31.979c18.485,18.492,32.091,40.556,40.195,64.629h-78.114c-6.147,0-11.13,4.983-11.13,11.13
				C333.356,464.717,338.339,469.7,344.487,469.7z" fill="currentColor"/>
			<path d="M295.512,447.44h-6.122c-6.147,0-11.13,4.983-11.13,11.13c0,6.147,4.983,11.13,11.13,11.13h6.122
				c6.147,0,11.13-4.983,11.13-11.13C306.642,452.423,301.659,447.44,295.512,447.44z" fill="currentColor"/>
		</g>
	</g>
</g>
<g>
</g>
<g>
</g>
<g>
</g>
<g>
</g>
<g>
</g>
<g>
</g>
<g>
</g>
<g>
</g>
<g>
</g>
<g>
</g>
<g>
</g>
<g>
</g>
<g>
</g>
<g>
</g>
<g>
</g>
</svg>
